HIERARCHY
ROOT Hips
{
	OFFSET -0.001795 -0.223333 0.028219
	CHANNELS 6 Xposition Yposition Zposition Zrotation Yrotation Xrotation 
	JOINT LeftUpLeg
	{
		OFFSET 0.069520 -0.091406 -0.006815
		CHANNELS 3 Zrotation Yrotation Xrotation
		JOINT LeftLeg
		{
			OFFSET 0.034277 -0.375199 -0.004496
			CHANNELS 3 Zrotation Yrotation Xrotation
			JOINT LeftFoot
			{
				OFFSET -0.013596 -0.397961 -0.043693
				CHANNELS 3 Zrotation Yrotation Xrotation
				JOINT LeftToe
				{
					OFFSET 0.026358 -0.055791 0.119288
					CHANNELS 3 Zrotation Yrotation Xrotation
					End Site
					{
						OFFSET 0.000000 0.000000 0.000000
					}
				}
			}
		}
	}
	JOINT RightUpLeg
	{
		OFFSET -0.067670 -0.090522 -0.004320
		CHANNELS 3 Zrotation Yrotation Xrotation
		JOINT RightLeg
		{
			OFFSET -0.038290 -0.382569 -0.008850
			CHANNELS 3 Zrotation Yrotation Xrotation
			JOINT RightFoot
			{
				OFFSET 0.015774 -0.398415 -0.042312
				CHANNELS 3 Zrotation Yrotation Xrotation
				JOINT RightToe
				{
					OFFSET -0.025372 -0.048144 0.123348
					CHANNELS 3 Zrotation Yrotation Xrotation
					End Site
					{
						OFFSET 0.000000 0.000000 0.000000
					}
				}
			}
		}
	}
	JOINT Spine
	{
		OFFSET -0.002533 0.108963 -0.026696
		CHANNELS 3 Zrotation Yrotation Xrotation
		JOINT Spine1
		{
			OFFSET 0.005487 0.135180 0.001092
			CHANNELS 3 Zrotation Yrotation Xrotation
			JOINT Spine2
			{
				OFFSET 0.001457 0.052922 0.025425
				CHANNELS 3 Zrotation Yrotation Xrotation
				JOINT Neck
				{
					OFFSET -0.002778 0.213870 -0.042857
					CHANNELS 3 Zrotation Yrotation Xrotation
					JOINT Head
					{
						OFFSET 0.005152 0.064970 0.051349
						CHANNELS 3 Zrotation Yrotation Xrotation
						End Site
						{
							OFFSET 0.000000 0.000000 0.000000
						}
					}
				}
				JOINT LeftShoulder
				{
					OFFSET 0.078845 0.121749 -0.034090
					CHANNELS 3 Zrotation Yrotation Xrotation
					JOINT LeftArm
					{
						OFFSET 0.090977 0.030469 -0.008868
						CHANNELS 3 Zrotation Yrotation Xrotation
						JOINT LeftForeArm
						{
							OFFSET 0.259612 -0.012772 -0.027456
							CHANNELS 3 Zrotation Yrotation Xrotation
							JOINT LeftHand
							{
								OFFSET 0.249234 0.008986 -0.001171
								CHANNELS 3 Zrotation Yrotation Xrotation
								End Site
								{
									OFFSET 0.000000 0.000000 0.000000
								}
							}
						}
					}
				}
				JOINT RightShoulder
				{
					OFFSET -0.081759 0.118833 -0.038615
					CHANNELS 3 Zrotation Yrotation Xrotation
					JOINT RightArm
					{
						OFFSET -0.096012 0.032551 -0.009143
						CHANNELS 3 Zrotation Yrotation Xrotation
						JOINT RightForeArm
						{
							OFFSET -0.253742 -0.013329 -0.021401
							CHANNELS 3 Zrotation Yrotation Xrotation
							JOINT RightHand
							{
								OFFSET -0.255298 0.007772 -0.005559
								CHANNELS 3 Zrotation Yrotation Xrotation
								End Site
								{
									OFFSET 0.000000 0.000000 0.000000
								}
							}
						}
					}
				}
			}
		}
	}
}
MOTION
Frames: 11
Frame Time: 0.050000
-0.041131 0.942481 2.437449 -0.951118 -0.712716 -4.738563 -2.100992 -1.136864 -10.309440 -1.962410 0.008289 13.193629 1.821873 6.441024 7.929033 0.000000 0.000000 0.000000 1.334606 0.158680 -1.570050 2.816397 0.776056 51.175172 0.730805 -3.703461 12.126383 0.000000 0.000000 0.000000 -8.721959 0.299724 9.902483 7.897127 -1.331262 -24.502606 0.146643 -2.011617 34.594838 -1.988752 2.490709 -33.805750 0.000000 0.000000 0.000000 -24.422672 11.909148 -7.763945 -42.829919 -0.157211 -7.801421 -109.449158 -46.443122 71.167629 0.000000 0.000000 0.000000 11.031092 -3.249231 -2.277683 52.563646 -8.821020 -11.857728 102.111001 47.438401 60.919811 0.000000 0.000000 0.000000 
-0.043794 0.947493 2.491368 -1.278997 0.139758 -5.862225 -1.811921 -0.613735 -5.667969 -1.789663 -0.049978 12.835590 2.140654 6.802741 6.968932 0.000000 0.000000 0.000000 1.481739 0.883762 -7.912068 3.516947 0.057753 49.058157 -2.935980 -9.226801 6.383276 0.000000 0.000000 0.000000 -7.719210 0.226378 11.816389 7.533063 -1.171526 -25.349832 -1.392986 -4.631797 34.375306 -3.617534 2.970301 -34.296911 0.000000 0.000000 0.000000 -24.701413 9.938116 -5.843710 -43.469073 -6.089303 -6.222970 -107.340880 -52.515873 77.924430 0.000000 0.000000 0.000000 10.892589 -2.184596 -2.071644 52.676121 -9.085325 -12.032133 99.309166 47.539739 57.222995 0.000000 0.000000 0.000000 
-0.046619 0.956357 2.540494 -1.899144 1.399399 -5.889020 -1.465900 -0.168741 -1.625367 -0.534920 -0.303368 11.073616 1.278447 4.947716 5.778222 0.000000 0.000000 0.000000 2.553317 1.439154 -11.913217 2.129963 0.367093 38.305920 -2.811428 -8.737629 5.856634 0.000000 0.000000 0.000000 -6.355592 0.079082 12.036299 7.269277 -1.088006 -25.440069 -2.540699 -6.645587 33.877545 -5.021228 3.485140 -34.533888 0.000000 0.000000 0.000000 -26.158207 9.270396 -5.206019 -44.475215 -11.786276 -4.498407 -106.419278 -55.811287 81.701186 0.000000 0.000000 0.000000 9.530665 -1.798357 -1.876772 53.766125 -10.030264 -12.715463 99.323770 47.063463 55.966296 0.000000 0.000000 0.000000 
-0.049649 0.961498 2.588164 -2.085237 1.944438 -6.278587 -1.092568 0.264840 2.701986 -0.035890 -0.356941 9.602055 0.928998 3.954658 4.752385 0.000000 0.000000 0.000000 2.909608 1.544261 -12.479555 0.655262 0.592467 22.923948 -0.585477 -4.585757 8.000285 0.000000 0.000000 0.000000 -4.757416 -0.082321 12.115371 6.335485 -0.769779 -26.586238 -3.532297 -6.654570 34.308596 -5.096174 3.580630 -33.833099 0.000000 0.000000 0.000000 -24.690322 7.727313 -4.168507 -46.697817 -14.345424 -3.617314 -110.794328 -56.567665 87.743827 0.000000 0.000000 0.000000 9.639448 -2.052805 -1.937273 54.192236 -10.722980 -13.192965 101.332480 46.522328 57.471798 0.000000 0.000000 0.000000 
-0.052708 0.960293 2.635533 -1.559224 3.630080 -6.497554 -1.559809 0.425808 4.241967 0.245477 -0.549413 12.039776 1.032762 3.860228 3.843389 0.000000 0.000000 0.000000 3.661076 1.370192 -10.548803 -0.660776 0.580426 12.764431 0.483073 -2.927968 10.177284 0.000000 0.000000 0.000000 -4.332559 -0.132935 10.982726 5.249541 -0.541352 -25.927892 -3.414182 -7.115646 33.969173 -5.580966 3.929077 -33.698841 0.000000 0.000000 0.000000 -23.926844 6.200167 -3.355224 -48.065866 -15.150368 -3.215324 -115.521911 -55.351941 91.684613 0.000000 0.000000 0.000000 9.246038 -2.269758 -1.899350 54.461340 -11.078763 -13.370434 103.995021 47.383689 61.311907 0.000000 0.000000 0.000000 
-0.054883 0.956971 2.682055 -1.196373 5.821484 -6.762936 -1.196331 0.400620 4.230558 -0.112583 -0.876643 18.373745 0.009550 1.574757 3.003876 0.000000 0.000000 0.000000 3.729571 1.105919 -8.417749 -0.647113 0.476059 10.996453 -0.027513 -4.320000 12.423091 0.000000 0.000000 0.000000 -3.670221 -0.190372 10.039939 3.890779 -0.185429 -25.812415 -3.101850 -6.655186 33.579487 -4.565622 3.711079 -32.634568 0.000000 0.000000 0.000000 -24.308246 5.826732 -3.793075 -47.634026 -15.525932 -2.872885 -113.917664 -52.844094 85.347463 0.000000 0.000000 0.000000 9.572179 -2.671700 -1.877549 53.941959 -10.565136 -12.895657 106.317750 48.803702 66.511527 0.000000 0.000000 0.000000 
-0.056308 0.952317 2.724766 -1.105555 6.823646 -7.271356 0.305219 0.287524 3.687347 -2.081908 -0.785554 25.647846 0.686676 2.785899 2.731412 0.000000 0.000000 0.000000 4.179372 0.912079 -6.628479 -0.832663 0.541857 12.531516 -0.943101 -5.445543 10.356941 0.000000 0.000000 0.000000 -3.423743 -0.182906 8.343627 3.580938 -0.115740 -25.185222 -2.151093 -5.422816 33.358469 -4.166488 3.823012 -31.859712 0.000000 0.000000 0.000000 -25.349118 6.039876 -4.685658 -46.603423 -13.393182 -3.526143 -114.071642 -50.372368 81.018219 0.000000 0.000000 0.000000 10.223318 -2.777679 -1.736810 52.973148 -8.798268 -11.879830 107.740983 51.141430 72.136484 0.000000 0.000000 0.000000 
-0.056957 0.951000 2.762344 -1.153864 7.089869 -7.318749 2.346449 0.055418 1.295400 -3.543956 -0.652501 31.978223 0.632341 2.197737 1.731315 0.000000 0.000000 0.000000 3.904064 0.491786 -3.534612 0.315840 0.262722 12.258339 -1.456696 -5.862452 7.712361 0.000000 0.000000 0.000000 -2.731012 -0.187058 7.029008 3.938739 -0.173416 -25.926133 -1.995978 -4.239359 33.866052 -4.279241 4.122601 -30.363555 0.000000 0.000000 0.000000 -26.241975 6.134907 -5.348240 -45.641500 -10.378181 -4.466269 -112.550976 -48.341102 75.719621 0.000000 0.000000 0.000000 10.116103 -1.583758 -0.992582 53.782336 -6.951458 -11.294088 109.330153 52.615410 76.920564 0.000000 0.000000 0.000000 
-0.056393 0.951993 2.794053 -1.181155 6.635049 -7.378462 2.738423 -0.053915 -0.422538 -4.248902 -0.368270 32.984460 2.432772 4.771591 -0.659272 0.000000 0.000000 0.000000 4.003917 0.018584 -0.068407 0.501263 0.209760 10.905477 -1.249821 -5.480079 7.675413 0.000000 0.000000 0.000000 -2.386039 -0.168907 5.853750 3.646346 -0.144272 -25.032365 -0.964178 -2.988602 32.621034 -3.192630 3.684616 -30.298224 0.000000 0.000000 0.000000 -24.950662 7.072192 -6.088715 -46.825691 -7.325991 -5.438364 -109.879098 -44.834094 67.853327 0.000000 0.000000 0.000000 9.284695 -1.491441 -0.828184 54.063816 -4.415615 -10.059901 110.603522 54.006712 80.602424 0.000000 0.000000 0.000000 
-0.054590 0.951712 2.820362 -1.346989 6.805791 -7.207629 2.607044 -0.044184 -0.245044 -2.808628 -0.644368 27.371520 3.207127 6.204880 -1.025909 0.000000 0.000000 0.000000 4.027273 -0.403916 2.885172 0.625455 0.138816 8.598332 -0.071329 -2.859241 7.401144 0.000000 0.000000 0.000000 -1.947020 -0.168771 5.412383 3.359676 -0.071964 -25.096072 -0.542754 -2.924603 32.835947 -1.988634 3.047504 -29.597121 0.000000 0.000000 0.000000 -24.055756 6.861178 -5.886318 -47.996378 -5.362787 -6.247898 -108.412611 -43.840815 65.081905 0.000000 0.000000 0.000000 9.014769 -1.593953 -0.842474 55.079394 -1.424023 -8.870353 113.090310 55.308440 85.418851 0.000000 0.000000 0.000000 
-0.051946 0.950868 2.841214 -1.367336 6.243090 -6.772101 2.193421 0.004809 0.423534 -1.534625 -0.651334 20.858787 2.393603 3.963991 -2.212364 0.000000 0.000000 0.000000 3.944572 -0.618666 4.350256 0.560940 0.131403 7.293544 0.069879 -2.643334 7.510079 0.000000 0.000000 0.000000 -2.334302 -0.151982 5.321181 3.248861 -0.026017 -25.739164 0.114772 -2.641546 32.953339 -0.838255 2.408092 -29.821239 0.000000 0.000000 0.000000 -23.174803 6.757260 -5.636572 -48.422012 -4.736838 -6.579868 -106.240293 -43.533603 62.726007 0.000000 0.000000 0.000000 9.671329 -0.726787 -0.476326 55.550782 1.450458 -7.715243 115.033618 56.849344 89.758946 0.000000 0.000000 0.000000 
